HIERARCHY
ROOT Hips
{
  OFFSET 5.84602e-005 68.8428 3.50346
  CHANNELS 6 Xposition Yposition Zposition Zrotation Xrotation Yrotation
  JOINT Spine
  {
    OFFSET 0 8.597 -4.6522
    CHANNELS 3 Zrotation Xrotation Yrotation
    JOINT Spine1
    {
      OFFSET 0 7.8454 0.4098
      CHANNELS 3 Zrotation Xrotation Yrotation
      JOINT Spine2
      {
        OFFSET 0 9.7078 -2.1609
        CHANNELS 3 Zrotation Xrotation Yrotation
        JOINT Neck
        {
          OFFSET 0 21.8761 -0.4549
          CHANNELS 3 Zrotation Xrotation Yrotation
          JOINT Head
          {
            OFFSET 0 12.3537 3.3602
            CHANNELS 3 Zrotation Xrotation Yrotation
            End Site
            {
              OFFSET 0.0001 18.9506 0.5657
            }
          }
        }
        JOINT LeftShoulder
        {
          OFFSET 2.2086 21.1115 7.2329
          CHANNELS 3 Zrotation Xrotation Yrotation
          JOINT LeftArm
          {
            OFFSET 13.1193 3.0282 -4.8998
            CHANNELS 3 Zrotation Xrotation Yrotation
            JOINT LeftForeArm
            {
              OFFSET 27.4081 -0.0973053 -0.2375
              CHANNELS 3 Zrotation Xrotation Yrotation
              JOINT LeftHand
              {
                OFFSET 22.8641 0.0662994 -0.1369
                CHANNELS 3 Zrotation Xrotation Yrotation
                JOINT LeftHandIndex1
                {
                  OFFSET 8.8614 0.775009 2.4612
                  CHANNELS 3 Zrotation Xrotation Yrotation
                  JOINT LeftHandIndex2
                  {
                    OFFSET 3.3146 -0.808304 0.5841
                    CHANNELS 3 Zrotation Xrotation Yrotation
                    JOINT LeftHandIndex3
                    {
                      OFFSET 2.2628 -0.552002 0.3989
                      CHANNELS 3 Zrotation Xrotation Yrotation
                      End Site
                      {
                        OFFSET 1.6102 -0.4807 0.2612
                      }
                    }
                  }
                }
                JOINT LeftHandMiddle1
                {
                  OFFSET 8.9937 0.895004 0.2143
                  CHANNELS 3 Zrotation Xrotation Yrotation
                  JOINT LeftHandMiddle2
                  {
                    OFFSET 4.0984 0.0113983 -0.0242
                    CHANNELS 3 Zrotation Xrotation Yrotation
                    JOINT LeftHandMiddle3
                    {
                      OFFSET 2.2716 0.00689697 -0.0138001
                      CHANNELS 3 Zrotation Xrotation Yrotation
                      End Site
                      {
                        OFFSET 2.0404 -0.1441 0.0027
                      }
                    }
                  }
                }
                JOINT LeftHandRing1
                {
                  OFFSET 8.5234 0.597198 -2.0164
                  CHANNELS 3 Zrotation Xrotation Yrotation
                  JOINT LeftHandRing2
                  {
                    OFFSET 3.7188 -0.188293 -0.2328
                    CHANNELS 3 Zrotation Xrotation Yrotation
                    JOINT LeftHandRing3
                    {
                      OFFSET 2.1191 -0.106598 -0.1332
                      CHANNELS 3 Zrotation Xrotation Yrotation
                      End Site
                      {
                        OFFSET 1.8737 -0.2304 -0.0886
                      }
                    }
                  }
                }
                JOINT LeftHandPinky1
                {
                  OFFSET 7.9094 -0.601089 -3.4825
                  CHANNELS 3 Zrotation Xrotation Yrotation
                  JOINT LeftHandPinky2
                  {
                    OFFSET 2.2874 -0.477005 -0.6314
                    CHANNELS 3 Zrotation Xrotation Yrotation
                    JOINT LeftHandPinky3
                    {
                      OFFSET 1.6774 -0.349396 -0.4633
                      CHANNELS 3 Zrotation Xrotation Yrotation
                      End Site
                      {
                        OFFSET 1.4888 -0.4091 -0.3416
                      }
                    }
                  }
                }
                JOINT LeftHandThumb1
                {
                  OFFSET 1.833 -1.3875 1.3896
                  CHANNELS 3 Zrotation Xrotation Yrotation
                  JOINT LeftHandThumb2
                  {
                    OFFSET 3.4129 -1.121 2.5732
                    CHANNELS 3 Zrotation Xrotation Yrotation
                    JOINT LeftHandThumb3
                    {
                      OFFSET 2.2474 -0.804199 1.6192
                      CHANNELS 3 Zrotation Xrotation Yrotation
                      End Site
                      {
                        OFFSET 1.6527 -0.5689 1.1317
                      }
                    }
                  }
                }
              }
            }
          }
        }
        JOINT RightShoulder
        {
          OFFSET -2.2086 21.1115 7.2329
          CHANNELS 3 Zrotation Xrotation Yrotation
          JOINT RightArm
          {
            OFFSET -13.1216 3.0287 -4.9007
            CHANNELS 3 Zrotation Xrotation Yrotation
            JOINT RightForeArm
            {
              OFFSET -27.4081 -0.0973053 -0.2375
              CHANNELS 3 Zrotation Xrotation Yrotation
              JOINT RightHand
              {
                OFFSET -22.8641 0.0664063 -0.1369
                CHANNELS 3 Zrotation Xrotation Yrotation
                JOINT RightHandIndex1
                {
                  OFFSET -8.8614 0.774994 2.4612
                  CHANNELS 3 Zrotation Xrotation Yrotation
                  JOINT RightHandIndex2
                  {
                    OFFSET -3.3146 -0.808304 0.5841
                    CHANNELS 3 Zrotation Xrotation Yrotation
                    JOINT RightHandIndex3
                    {
                      OFFSET -2.2628 -0.552002 0.3989
                      CHANNELS 3 Zrotation Xrotation Yrotation
                      End Site
                      {
                        OFFSET -1.6102 -0.4807 0.2612
                      }
                    }
                  }
                }
                JOINT RightHandMiddle1
                {
                  OFFSET -8.9937 0.894989 0.2143
                  CHANNELS 3 Zrotation Xrotation Yrotation
                  JOINT RightHandMiddle2
                  {
                    OFFSET -4.0984 0.0113983 -0.0242
                    CHANNELS 3 Zrotation Xrotation Yrotation
                    JOINT RightHandMiddle3
                    {
                      OFFSET -2.2716 0.00691223 -0.0138001
                      CHANNELS 3 Zrotation Xrotation Yrotation
                      End Site
                      {
                        OFFSET -2.0404 -0.1441 0.0027
                      }
                    }
                  }
                }
                JOINT RightHandRing1
                {
                  OFFSET -8.5234 0.597198 -2.0164
                  CHANNELS 3 Zrotation Xrotation Yrotation
                  JOINT RightHandRing2
                  {
                    OFFSET -3.7188 -0.188309 -0.2328
                    CHANNELS 3 Zrotation Xrotation Yrotation
                    JOINT RightHandRing3
                    {
                      OFFSET -2.1191 -0.106598 -0.1332
                      CHANNELS 3 Zrotation Xrotation Yrotation
                      End Site
                      {
                        OFFSET -1.8737 -0.2304 -0.0886
                      }
                    }
                  }
                }
                JOINT RightHandPinky1
                {
                  OFFSET -7.9094 -0.601105 -3.4825
                  CHANNELS 3 Zrotation Xrotation Yrotation
                  JOINT RightHandPinky2
                  {
                    OFFSET -2.2874 -0.477005 -0.6314
                    CHANNELS 3 Zrotation Xrotation Yrotation
                    JOINT RightHandPinky3
                    {
                      OFFSET -1.6774 -0.349396 -0.4633
                      CHANNELS 3 Zrotation Xrotation Yrotation
                      End Site
                      {
                        OFFSET -1.4888 -0.4091 -0.3416
                      }
                    }
                  }
                }
                JOINT RightHandThumb1
                {
                  OFFSET -1.833 -1.38751 1.3896
                  CHANNELS 3 Zrotation Xrotation Yrotation
                  JOINT RightHandThumb2
                  {
                    OFFSET -3.41299 -1.12099 2.5732
                    CHANNELS 3 Zrotation Xrotation Yrotation
                    JOINT RightHandThumb3
                    {
                      OFFSET -2.24741 -0.804108 1.6192
                      CHANNELS 3 Zrotation Xrotation Yrotation
                      End Site
                      {
                        OFFSET -1.6527 -0.5689 1.1317
                      }
                    }
                  }
                }
              }
            }
          }
        }
      }
    }
  }
  JOINT RightUpLeg
  {
    OFFSET -9.1966 3.8861 -0.7581
    CHANNELS 3 Zrotation Xrotation Yrotation
    JOINT RightLeg
    {
      OFFSET -0.7359 -41.0265 0
      CHANNELS 3 Zrotation Xrotation Yrotation
      JOINT RightFoot
      {
        OFFSET 0 -40.2855 0
        CHANNELS 3 Zrotation Xrotation Yrotation
        JOINT RightToeBase
        {
          OFFSET 0 -5.6122 11.7359
          CHANNELS 3 Zrotation Xrotation Yrotation
          End Site
          {
            OFFSET 0 0 7.8731
          }
        }
      }
    }
  }
  JOINT LeftUpLeg
  {
    OFFSET 9.1965 3.8864 -0.7581
    CHANNELS 3 Zrotation Xrotation Yrotation
    JOINT LeftLeg
    {
      OFFSET 0.7359 -41.0268 0
      CHANNELS 3 Zrotation Xrotation Yrotation
      JOINT LeftFoot
      {
        OFFSET 0 -40.2855 0
        CHANNELS 3 Zrotation Xrotation Yrotation
        JOINT LeftToeBase
        {
          OFFSET 0 -5.6122 11.7359
          CHANNELS 3 Zrotation Xrotation Yrotation
          End Site
          {
            OFFSET 0 0 7.8731
          }
        }
      }
    }
  }
}
MOTION
Frames:	6
Frame Time:	0.0333333
5.84602e-005 68.8428 3.50346 0 0 -0 0 0 -0 0 0 -0 0 0 -0 0 0 -0 0 0 -0 0 0 -0 0 0 -0 0 0 -0 0 0 -0 0 0 -0 0 0 -0 0 0 -0 0 0 -0 -0.0146107 -8.87603e-005 -2.63497e-007 2.99804e-018 -2.42657e-020 -1.42182e-022 0 0 -0 -0.0187562 -0.001176 5.858e-005 5.06224e-018 3.88251e-019 1.21329e-020 0 0 -0 -0.012269 -0.00324817 0.000675346 -1.74678e-018 3.88251e-019 -0 0 0 -0 0 0 -0 0 0 -0 0 0 -0 0 0 -0 0 0 -0 0 0 -0 0 0 -0 0 0 -0 0 0 -0 0 0 -0 0.0149955 -9.10982e-005 2.64101e-007 -9.69331e-018 1.21329e-020 -4.7394e-023 0 0 -0 0.0189956 -0.00119102 -5.96516e-005 -5.41541e-019 0 2.42657e-020 0 0 -0 0.0122698 -0.00324857 -0.000673756 -2.00796e-019 0 -1.94126e-019 0 0 -0 0 0 -0 0 0 -0 3.39842 1.33031 -0.0637918 -5.65207e-008 0.834868 -0.000436188 -3.39935 -2.16518 -0.0642563 -8.89002e-024 -1.18485e-023 -1.48106e-024 -3.39844 1.35642 0.0640283 -3.18788e-007 0.782166 -0.000588827 3.39931 -2.13858 0.0634662 1.1399e-023 0 -0 
1.46662 68.6226 20.2792 -0 0 66.6667 -0.746051 -0.421692 -0.394812 -1.49505 -0.838189 -0.795128 -1.49505 -0.838189 -0.79512 0.00749131 0.171862 9.88977e-005 0.114759 0.0297291 0.00318017 -21.006 0.419582 -3.37005 0.0653325 -0.355938 0.632 -17.1894 -12.1051 -46.0652 -10.0236 3.86742 3.61379 -1.59028e-015 6.36111e-015 -3.18055e-015 1.08508e-006 9.8258e-007 -2.55558e-006 -2.38542e-015 0 -2.38542e-015 -1.59028e-015 6.36111e-015 -3.18055e-015 -0.014626 -9.50975e-005 -8.92616e-007 -3.18055e-015 0 -0 -1.59028e-015 6.36111e-015 -3.18055e-015 -0.0186945 -0.00117145 5.77112e-005 4.77083e-015 0 -1.59028e-015 -1.59028e-015 6.36111e-015 -3.18055e-015 -0.0122447 -0.00324271 0.000673292 5.56597e-015 -3.18055e-015 -3.18055e-015 -1.59028e-015 6.36111e-015 -3.18055e-015 1.08508e-006 9.8258e-007 -2.55558e-006 -2.38542e-015 0 -2.38542e-015 18.8225 -1.33936 12.4903 1.498 -0.780241 10.7097 17.296 -11.1312 42.6433 0.855221 7.32983 7.47274 7.67223e-007 2.97708e-007 -2.23573e-007 -7.67223e-007 -2.97708e-007 2.23573e-007 -7.67223e-007 -2.97708e-007 2.23573e-007 7.67223e-007 2.97708e-007 -2.23573e-007 0.0149637 -9.10535e-005 -1.74351e-006 -7.67228e-007 -2.97678e-007 2.23612e-007 7.67223e-007 2.97708e-007 -2.23573e-007 0.0190124 -0.00119272 -5.74934e-005 -4.39889e-007 -9.8533e-007 1.65056e-006 7.67223e-007 2.97708e-007 -2.23573e-007 0.0121964 -0.00322669 -0.000673817 -7.67219e-007 -2.97687e-007 2.23626e-007 7.67223e-007 2.97708e-007 -2.23573e-007 -7.67223e-007 -2.97708e-007 2.23573e-007 -7.67223e-007 -2.97708e-007 2.23573e-007 -5.6721 -0.963141 -1.04447 0.982185 3.83505 -0.161619 -3.37906 -3.92826 -0.336334 -7.1672e-007 4.59972e-007 3.98335e-008 -3.08956 -2.30184 0.361129 0.00364683 8.03184 -0.00959689 5.45737 -6.10666 0.950545 -1.18775e-010 -3.84709e-007 7.79819e-009 
-1.08762 68.335 35.4135 -1.91294e-015 4.81516e-015 133.333 -1.50244 -0.852533 -0.781738 -3.01686 -1.68419 -1.58583 -3.01687 -1.68419 -1.58584 0.0149242 0.343774 0.000261638 0.229513 0.0594585 0.00634407 -41.9627 0.834817 -6.7406 0.138518 -0.711752 1.26405 -44.174 -0.272766 -89.601 -20.5379 7.68853 7.27689 -2.30193e-006 -1.83117e-007 -1.35587e-006 0 0 -0 -1.19195e-006 -4.39836e-009 -8.19627e-008 -2.30193e-006 -1.83117e-007 -1.35587e-006 -0.014615 -8.84829e-005 -1.11785e-007 -1.19197e-006 -4.38806e-009 -8.19624e-008 -2.30193e-006 -1.83117e-007 -1.35587e-006 -0.0187508 -0.00117137 5.71318e-005 -1.19197e-006 -4.38614e-009 -8.19512e-008 -2.30193e-006 -1.83117e-007 -1.35587e-006 -0.0122763 -0.00324871 0.000676332 -1.19197e-006 -4.3875e-009 -8.19284e-008 -2.30193e-006 -1.83117e-007 -1.35587e-006 0 0 -0 -1.19195e-006 -4.39836e-009 -8.19627e-008 38.2108 -2.48692 24.9989 3.28091 -1.47845 21.4249 44.2107 -3.33088 84.2028 -0.234584 14.2813 15.3067 -4.63596e-007 5.88007e-007 4.08003e-007 -4.63596e-007 5.88007e-007 4.08003e-007 -6.95395e-007 8.8201e-007 6.12004e-007 -4.63596e-007 5.88007e-007 4.08003e-007 0.0150126 -8.90169e-005 -4.35929e-006 -6.95386e-007 8.8209e-007 6.11889e-007 -4.63596e-007 5.88007e-007 4.08003e-007 0.0190239 -0.00118748 -7.28395e-005 -2.01221e-006 1.87743e-007 -4.52839e-007 -4.63596e-007 5.88007e-007 4.08003e-007 0.0122881 -0.00325183 -0.00068071 -6.95376e-007 8.8207e-007 6.11929e-007 -4.63596e-007 5.88007e-007 4.08003e-007 -4.63596e-007 5.88007e-007 4.08003e-007 -6.95395e-007 8.8201e-007 6.12004e-007 -14.8475 -3.54823 -2.02711 1.9828 7.42933 -0.339306 -3.36274 -5.9898 -0.619552 3.5051e-007 -7.69017e-007 -1.17139e-007 -2.75305 -6.02462 0.661093 0.0435608 15.4188 -0.00677052 7.63268 -10.1373 1.86748 -9.51554e-007 6.41002e-008 4.35595e-009 
-4.90233 68.1311 47.676 -7.01671e-015 7.01671e-015 180 -2.03455 -1.15727 -1.04848 -4.09116 -2.27637 -2.13804 -4.09116 -2.27637 -2.13804 0.0226894 0.515848 -0.000109781 0.344452 0.0892021 0.00847371 -56.6318 1.11009 -9.05669 0.194435 -0.960674 1.7066 -55.2401 21.8172 -112.306 -28.2062 10.3183 9.84466 -1.27222e-014 -1.27222e-014 1.43125e-014 -9.54166e-015 -6.36111e-015 3.18055e-015 -3.18055e-015 0 4.77083e-015 -1.27222e-014 -1.27222e-014 1.43125e-014 -0.0145986 -8.79886e-005 -4.60356e-006 3.18055e-015 1.59028e-014 4.77083e-015 -1.27222e-014 -1.27222e-014 1.43125e-014 -0.0187275 -0.00117881 6.10569e-005 -7.94503e-031 -9.54166e-015 -4.77083e-015 -1.27222e-014 -1.27222e-014 1.43125e-014 -0.0122633 -0.00324728 0.00067165 0 0 -3.18055e-015 -1.27222e-014 -1.27222e-014 1.43125e-014 -9.54166e-015 -6.36111e-015 3.18055e-015 -3.18055e-015 0 4.77083e-015 52.0974 -3.06971 33.7366 4.6458 -1.89377 28.8203 57.6494 14.3993 107.434 -2.09772 18.7458 21.1725 -7.95139e-016 -3.18055e-015 -1.59028e-015 6.68982e-007 5.37477e-007 2.25246e-006 -8.82781e-032 3.18055e-015 1.59028e-015 -7.95139e-016 -3.18055e-015 -1.59028e-015 0.0150137 -8.94668e-005 6.70684e-007 1.39294e-006 6.11161e-007 -2.83848e-007 -7.95139e-016 -3.18055e-015 -1.59028e-015 0.0190141 -0.00118976 -5.89458e-005 -7.15625e-015 -6.36111e-015 1.59028e-015 -7.95139e-016 -3.18055e-015 -1.59028e-015 0.0122976 -0.00325639 -0.000676029 1.3933e-006 6.11609e-007 -2.8378e-007 -7.95139e-016 -3.18055e-015 -1.59028e-015 6.68982e-007 5.37477e-007 2.25246e-006 -8.82781e-032 3.18055e-015 1.59028e-015 -21.2892 -5.32691 -2.72539 2.67937 9.8915 -0.461663 -3.38162 -7.40776 -0.826412 -3.34005e-006 -5.0492e-007 2.08896e-008 -2.46019 -8.51098 0.876826 0.0883332 20.3738 -0.0107723 9.19816 -12.8186 2.59424 1.40877e-009 1.06538e-007 -6.01808e-009 
-5.93819 68.0726 51.5959 -8.63487e-015 6.82757e-015 -166.667 -2.17911 -1.24035 -1.12563 -4.38367 -2.43671 -2.2984 -4.38367 -2.43671 -2.2984 0.0307422 0.688254 -0.00135197 0.459704 0.118966 0.00891486 -60.887 1.16301 -9.6141 0.211117 -1.03177 1.83305 -56.4373 29.4254 -117.867 -30.4708 11.0782 10.4658 1.59028e-015 6.36111e-015 -0 6.36111e-015 6.36111e-015 -3.18055e-015 -5.10945e-007 -6.58138e-007 -9.72048e-007 1.59028e-015 6.36111e-015 -0 -0.0146309 -8.83525e-005 7.38287e-008 -5.10942e-007 -6.58013e-007 -9.72132e-007 1.59028e-015 6.36111e-015 -0 -0.018752 -0.00118251 5.98155e-005 -2.18611e-006 -8.50444e-007 -9.1265e-009 1.59028e-015 6.36111e-015 -0 -0.0123001 -0.00325975 0.00067828 -5.10973e-007 -6.58029e-007 -9.72104e-007 1.59028e-015 6.36111e-015 -0 6.36111e-015 6.36111e-015 -3.18055e-015 -5.10945e-007 -6.58138e-007 -9.72048e-007 56.148 -3.17209 36.1556 4.96885 -2.03573 30.672 59.8729 20.8263 113.182 -2.60633 20.0218 22.9093 1.76556e-031 -3.18055e-015 3.18055e-015 -0 0 3.18055e-015 -3.18055e-015 0 3.18055e-015 1.76556e-031 -3.18055e-015 3.18055e-015 0.0148797 -8.91281e-005 9.88368e-007 3.53113e-031 -3.18055e-015 6.36111e-015 1.76556e-031 -3.18055e-015 3.18055e-015 0.0189782 -0.00118787 -6.35711e-005 -7.06225e-031 1.27222e-014 3.18055e-015 1.76556e-031 -3.18055e-015 3.18055e-015 0.0122718 -0.00324502 -0.000676933 -3.18055e-015 3.18055e-015 -0 1.76556e-031 -3.18055e-015 3.18055e-015 -0 0 3.18055e-015 -3.18055e-015 0 3.18055e-015 -23.0442 -5.91593 -2.93874 2.84533 10.7661 -0.493123 -3.45372 -7.90698 -0.907169 -6.5284e-007 5.83261e-008 -3.37304e-007 -2.28157 -9.1825 0.942036 0.0995463 21.7638 -0.0122809 9.58897 -13.5096 2.97129 -1.74813e-008 -1.31996e-007 8.21653e-009 
-5.18003 68.1024 49.5986 -7.8313e-015 6.96926e-015 -173.333 -2.08916 -1.18883 -1.09068 -4.20188 -2.33689 -2.22468 -4.20188 -2.33689 -2.22468 0.0394069 0.860425 -0.0031689 0.575151 0.148745 0.00832059 -58.9018 1.08432 -9.116 0.202739 -0.996222 1.76982 -55.8156 25.7359 -114.613 -29.399 10.7381 9.8957 5.12289e-006 -5.10582e-006 8.0696e-009 3.37562e-006 -4.34903e-006 -1.2595e-006 2.51274e-006 -2.60424e-006 -7.58361e-008 5.12289e-006 -5.10582e-006 8.0696e-009 -0.0146203 -8.88229e-005 -3.29867e-006 2.51315e-006 -2.60423e-006 -7.61703e-008 5.12289e-006 -5.10582e-006 8.0696e-009 -0.0187414 -0.00117581 5.77631e-005 2.51326e-006 -2.6042e-006 -7.62895e-008 5.12289e-006 -5.10582e-006 8.0696e-009 -0.0122253 -0.00323908 0.000669386 2.51306e-006 -2.60416e-006 -7.62037e-008 5.12289e-006 -5.10582e-006 8.0696e-009 3.37562e-006 -4.34903e-006 -1.2595e-006 2.51274e-006 -2.60424e-006 -7.58361e-008 54.2187 -3.07135 34.7794 4.61897 -2.05244 29.1956 58.6384 17.8004 110.057 -1.90287 19.5831 22.0065 6.36111e-015 6.36111e-015 -3.18055e-015 3.18055e-015 -3.18055e-015 6.36111e-015 3.18055e-015 -3.18055e-015 3.18055e-015 6.36111e-015 6.36111e-015 -3.18055e-015 0.0149827 -9.53862e-005 1.19487e-006 -4.77083e-015 0 6.36111e-015 6.36111e-015 6.36111e-015 -3.18055e-015 0.0189857 -0.00118901 -5.8893e-005 1.33379e-006 1.53553e-006 -1.72287e-006 6.36111e-015 6.36111e-015 -3.18055e-015 0.0124519 -0.00329978 -0.000680715 1.59028e-015 6.36111e-015 -6.36111e-015 6.36111e-015 6.36111e-015 -3.18055e-015 3.18055e-015 -3.18055e-015 6.36111e-015 3.18055e-015 -3.18055e-015 3.18055e-015 -21.9684 -5.81568 -2.85882 2.68964 10.7352 -0.470443 -3.55582 -7.8791 -0.912446 -9.68197e-007 2.8604e-007 9.54612e-008 -2.18226 -8.79076 0.915204 0.0940075 21.0655 -0.0116262 9.24074 -13.0345 3.13095 -7.97468e-016 1.86361e-016 -1.59028e-015 
